<svg xmlns="http://www.w3.org/2000/svg" xmlns:xlink="http://www.w3.org/1999/xlink" xmlns:lucid="lucid" width="2759" height="1562"><g transform="translate(0 0)" lucid:page-tab-id=".Q4MUjXso07N"><path d="M2020 165a5 5 0 0 1 5-5h590a5 5 0 0 1 5 5v630a5 5 0 0 1-5 5h-590a5 5 0 0 1-5-5z" stroke="#333" fill-opacity="0"/><use xlink:href="#a" transform="matrix(1,0,0,1,2028,168) translate(220.51851851851853 15.11111111111111)"/><use xlink:href="#b" transform="matrix(1,0,0,1,2028,168) translate(293.2345679012346 15.11111111111111)"/><path d="M40 45a5 5 0 0 1 5-5h2670a5 5 0 0 1 5 5v1470a5 5 0 0 1-5 5H45a5 5 0 0 1-5-5z" stroke="#333" fill-opacity="0"/><use xlink:href="#c" transform="matrix(1,0,0,1,48,48) translate(952.375 15.6)"/><use xlink:href="#d" transform="matrix(1,0,0,1,48,48) translate(1099.175 15.6)"/><use xlink:href="#e" transform="matrix(1,0,0,1,48,48) translate(1115.175 15.6)"/><use xlink:href="#f" transform="matrix(1,0,0,1,48,48) translate(1181.075 15.6)"/><use xlink:href="#g" transform="matrix(1,0,0,1,48,48) translate(1198.075 15.6)"/><use xlink:href="#h" transform="matrix(1,0,0,1,48,48) translate(1307.875 15.6)"/><use xlink:href="#i" transform="matrix(1,0,0,1,48,48) translate(1354.775 15.6)"/><use xlink:href="#j" transform="matrix(1,0,0,1,48,48) translate(1533.8249999999998 15.6)"/><use xlink:href="#f" transform="matrix(1,0,0,1,48,48) translate(1605.725 15.6)"/><use xlink:href="#k" transform="matrix(1,0,0,1,48,48) translate(1622.725 15.6)"/><path d="M340 165a5 5 0 0 1 5-5h590a5 5 0 0 1 5 5v610a5 5 0 0 1-5 5H345a5 5 0 0 1-5-5z" stroke="#333" fill-opacity="0"/><use xlink:href="#a" transform="matrix(1,0,0,1,348.0000000000001,167.99999999999994) translate(168.7592592592593 15.11111111111111)"/><use xlink:href="#l" transform="matrix(1,0,0,1,348.0000000000001,167.99999999999994) translate(241.47530864197535 15.11111111111111)"/><path d="M1859.75 519.75c0 10.9-8.84 19.75-19.75 19.75-10.9 0-19.75-8.84-19.75-19.75 0-10.9 8.84-19.75 19.75-19.75 10.9 0 19.75 8.84 19.75 19.75z" stroke="#333" fill="#fff"/><path d="M1840 539.5v50.3a17.25 17.25 0 0 0 2.67 9.22L1880 658m-40-63.2l-40 63.2m0-98.75h80" stroke="#333" fill="none"/><path d="M1800 505a5 5 0 0 1 5-5h70a5 5 0 0 1 5 5v170a5 5 0 0 1-5 5h-70a5 5 0 0 1-5-5z" fill="none"/><use xlink:href="#m" transform="matrix(1,0,0,1,1720.0000000000002,658) translate(92.41975308641975 14.888888888888888)"/><path d="M2246.1 300c0 33.14-35.8 60-80 60-44.17 0-80-26.86-80-60s35.83-60 80-60c44.2 0 80 26.86 80 60z" stroke="#fff" fill="#3278cc"/><use xlink:href="#n" transform="matrix(1,0,0,1,2110.112576939023,263.9989633254835) translate(17.061728395061728 28.888888888888886)"/><use xlink:href="#o" transform="matrix(1,0,0,1,2110.112576939023,263.9989633254835) translate(28.41975308641975 50.22222222222222)"/><path d="M2246.1 520c0 33.14-35.8 60-80 60-44.17 0-80-26.86-80-60s35.83-60 80-60c44.2 0 80 26.86 80 60z" stroke="#fff" fill="#3278cc"/><use xlink:href="#p" transform="matrix(1,0,0,1,2110.112576939023,484.0000000000001) translate(17.111111111111107 28.888888888888886)"/><use xlink:href="#q" transform="matrix(1,0,0,1,2110.112576939023,484.0000000000001) translate(21.95061728395062 50.22222222222222)"/><path d="M2260 720c0 33.14-35.82 60-80 60s-80-26.86-80-60 35.82-60 80-60 80 26.86 80 60z" stroke="#fff" fill="#3278cc"/><use xlink:href="#r" transform="matrix(1,0,0,1,2124,684) translate(17.061728395061728 28.888888888888886)"/><use xlink:href="#s" transform="matrix(1,0,0,1,2124,684) translate(35.82716049382716 50.22222222222222)"/><path d="M1840.83 589.62l244.46-289.24M1840.84 589.6l-2.27 2.7" stroke="#333" fill="none"/><path d="M2085.6 300v.4l.03.28-.73-.6.74-.9z" stroke="#333" stroke-width=".05" fill="#333"/><path d="M1841 589.86l244.13-69.72M1841 589.86l-3.38.96" stroke="#333" fill="none"/><path d="M2085.6 520v.4l.02.12-.36.1-.28-.96.65-.18zM2166.6 459h-1v-4.65h1zm0-9.3h-1v-9.3h1zm0-13.94h-1v-9.3h1zm0-13.94h-1v-1.15h1zm0-22.5h-1v-.73h1zm0-5.38h-1v-9.3h1zm0-13.94h-1v-9.3h1zm0-13.94h-1v-4.65h1z" stroke="#333" stroke-width=".05" fill="#333"/><path d="M2166.6 459.52l-.48-.02h-.5v-.5h1z" fill="#333"/><path d="M2166.64 459.54l-.52-.02h-.53v-.56h1.04zm-1-.53v.48h.95v-.47zM2176.72 378.44l-.86.5-9.75-16.48-9.74 16.5-.86-.52 10.6-17.94z" stroke="#333" stroke-width=".05" fill="#333"/><use xlink:href="#t" transform="matrix(1,0,0,1,2117.273070766183,399.3328149960751) translate(0 14.222222222222223)"/><path d="M1840.95 590.23L2099.4 725.2M1840.96 590.24l-3.1-1.63" stroke="#333" fill="none"/><path d="M2099.78 724.85l.12 1.2-.75-.4.46-.9z" stroke="#333" stroke-width=".05" fill="#333"/><path d="M2560 300c0 33.14-35.82 60-80 60s-80-26.86-80-60 35.82-60 80-60 80 26.86 80 60z" stroke="#fff" fill="#3278cc"/><use xlink:href="#u" transform="matrix(1,0,0,1,2424,263.9989633254835) translate(22.518518518518512 18.22222222222222)"/><use xlink:href="#v" transform="matrix(1,0,0,1,2424,263.9989633254835) translate(19.555555555555557 39.55555555555556)"/><use xlink:href="#w" transform="matrix(1,0,0,1,2424,263.9989633254835) translate(72.69135802469137 39.55555555555556)"/><use xlink:href="#x" transform="matrix(1,0,0,1,2424,263.9989633254835) translate(7.679012345679006 60.88888888888889)"/><path d="M2252.16 300.5h-5.05v-1h5.06zm15.15 0h-10.1v-1h10.1zm6.92 0h-1.86v-1h1.86zm114.27 0h-10.1v-1h10.1zm10.1 0h-5.06v-1h5.05zm-25.26 0h-1.44v-1h1.44z" stroke="#333" stroke-width=".05" fill="#333"/><path d="M2247.13 300.5h-.53v-1h.53z" fill="#333"/><path d="M2247.15 300.52h-.58l.02-.5v-.4l-.02-.15h.57zm-.52-1v.95h.47v-.95zM2399.5 300l-17.94 10.6-.5-.85 16.48-9.75-16.5-9.75.52-.86z" stroke="#333" stroke-width=".05" fill="#333"/><use xlink:href="#t" transform="matrix(1,0,0,1,2274.2167822966717,289.3322966588168) translate(0 14.222222222222223)"/><path d="M2171.2 659.03h-1v-5.23h1zm0-10.47h-1V638.1h1zm0-15.7h-1v-2.2h1zm0-23.53h-1v-2.62h1zm0-7.85h-1v-10.46h1zm0-15.7h-1v-5.23h1z" stroke="#333" stroke-width=".05" fill="#333"/><path d="M2171.2 580.56h-1v-.5h1zM2181.32 642l-10.6 17.94L2160.1 642l.86-.5 9.75 16.47 9.76-16.48z" stroke="#333" stroke-width=".05" fill="#333"/><use xlink:href="#y" transform="matrix(1,0,0,1,2123.2989076322506,609.327626517913) translate(0 14.222222222222223)"/><path d="M159.75 519.75c0 10.9-8.84 19.75-19.75 19.75-10.9 0-19.75-8.84-19.75-19.75 0-10.9 8.84-19.75 19.75-19.75 10.9 0 19.75 8.84 19.75 19.75z" stroke="#333" fill="#fff"/><path d="M140 539.5v50.3a17.25 17.25 0 0 0 2.67 9.22L180 658m-40-63.2L100 658m0-98.75h80" stroke="#333" fill="none"/><path d="M100 505a5 5 0 0 1 5-5h70a5 5 0 0 1 5 5v170a5 5 0 0 1-5 5h-70a5 5 0 0 1-5-5z" fill="none"/><use xlink:href="#z" transform="matrix(1,0,0,1,20,658) translate(54.39506172839506 14.888888888888888)"/><path d="M566.1 300c0 33.14-35.8 60-80 60-44.17 0-80-26.86-80-60s35.83-60 80-60c44.2 0 80 26.86 80 60z" stroke="#fff" fill="#3278cc"/><use xlink:href="#n" transform="matrix(1,0,0,1,430.1125769390228,263.9989633254835) translate(17.061728395061728 28.888888888888886)"/><use xlink:href="#A" transform="matrix(1,0,0,1,430.1125769390228,263.9989633254835) translate(-9.604938271604937 50.22222222222222)"/><path d="M566.1 520c0 33.14-35.8 60-80 60-44.17 0-80-26.86-80-60s35.83-60 80-60c44.2 0 80 26.86 80 60z" stroke="#fff" fill="#3278cc"/><use xlink:href="#p" transform="matrix(1,0,0,1,430.1125769390228,484.0000000000001) translate(17.111111111111107 28.888888888888886)"/><use xlink:href="#q" transform="matrix(1,0,0,1,430.1125769390228,484.0000000000001) translate(21.95061728395062 50.22222222222222)"/><path d="M140.84 589.63l264.44-289.26M140.85 589.62l-2.37 2.6" stroke="#333" fill="none"/><path d="M405.6 300v.4l.03.3-.73-.66.74-.8z" stroke="#333" stroke-width=".05" fill="#333"/><path d="M141 589.87l264.13-69.74M141 589.87l-3.4.9" stroke="#333" fill="none"/><path d="M405.6 520v.4l.02.12-.38.1-.25-.97.63-.17zM486.6 638.6h-1v-4.8h1zm0-9.6h-1v-8.33h1zm0-29.67h-1v-8.73h1zm0-13.53h-1V581h1z" stroke="#333" stroke-width=".05" fill="#333"/><path d="M486.1 580.5h.5v.5h-1v-.52z" fill="#333"/><path d="M486.1 580.48h.54v.56h-1.05v-.58zm-.46.5h.95v-.46h-.96zM496.72 621.56l-10.6 17.94-10.62-17.94.86-.5 9.75 16.48 9.76-16.5z" stroke="#333" stroke-width=".05" fill="#333"/><use xlink:href="#y" transform="matrix(1,0,0,1,438.7051695316154,599.3333333333334) translate(0 14.222222222222223)"/><path d="M486.6 459h-1v-4.65h1zm0-9.3h-1v-9.3h1zm0-13.94h-1v-9.3h1zm0-13.94h-1v-1.15h1zm0-22.5h-1v-.73h1zm0-5.38h-1v-9.3h1zm0-13.94h-1v-9.3h1zm0-13.94h-1v-4.65h1z" stroke="#333" stroke-width=".05" fill="#333"/><path d="M486.6 459.52l-.48-.02h-.5v-.5h1z" fill="#333"/><path d="M486.64 459.54l-.52-.02h-.53v-.56h1.04zm-1-.53v.48h.95v-.47zM496.72 378.44l-.86.5-9.75-16.48-9.74 16.5-.86-.52 10.6-17.94z" stroke="#333" stroke-width=".05" fill="#333"/><use xlink:href="#t" transform="matrix(1,0,0,1,437.2730707661833,399.3328149960751) translate(0 14.222222222222223)"/><path d="M140.97 590.2l264.18 109.6M140.98 590.2l-3.25-1.35" stroke="#333" fill="none"/><path d="M405.63 699.47l-.02.52v.4l.02.14-.67-.27.38-.93z" stroke="#333" stroke-width=".05" fill="#333"/><path d="M880 300c0 33.14-35.82 60-80 60s-80-26.86-80-60 35.82-60 80-60 80 26.86 80 60z" stroke="#fff" fill="#3278cc"/><use xlink:href="#u" transform="matrix(1,0,0,1,744,263.9989633254835) translate(22.518518518518512 18.22222222222222)"/><use xlink:href="#v" transform="matrix(1,0,0,1,744,263.9989633254835) translate(19.555555555555557 39.55555555555556)"/><use xlink:href="#w" transform="matrix(1,0,0,1,744,263.9989633254835) translate(72.69135802469137 39.55555555555556)"/><use xlink:href="#x" transform="matrix(1,0,0,1,744,263.9989633254835) translate(7.679012345679006 60.88888888888889)"/><path d="M572.16 300.5h-5.05v-1h5.06zm15.15 0h-10.1v-1h10.1zm6.92 0h-1.86v-1h1.86zm114.27 0h-10.1v-1h10.1zm10.1 0h-5.06v-1h5.05zm-25.26 0h-1.44v-1h1.44z" stroke="#333" stroke-width=".05" fill="#333"/><path d="M567.13 300.5h-.53v-1h.53z" fill="#333"/><path d="M567.15 300.52h-.58l.02-.5v-.4l-.02-.15h.57zm-.52-1v.95h.47v-.95zM719.5 300l-17.94 10.6-.5-.85 16.48-9.75-16.5-9.75.52-.86z" stroke="#333" stroke-width=".05" fill="#333"/><use xlink:href="#t" transform="matrix(1,0,0,1,594.2167822966719,289.3322966588168) translate(0 14.222222222222223)"/><path d="M566.1 700c0 33.14-35.8 60-80 60-44.17 0-80-26.86-80-60s35.83-60 80-60c44.2 0 80 26.86 80 60z" stroke="#fff" fill="#3278cc"/><use xlink:href="#n" transform="matrix(1,0,0,1,430.1125769390228,664) translate(17.061728395061728 28.888888888888886)"/><use xlink:href="#B" transform="matrix(1,0,0,1,430.1125769390228,664) translate(-3.1604938271605008 50.22222222222222)"/><path d="M2246.16 1140c0 33.14-35.82 60-80 60s-80-26.86-80-60 35.82-60 80-60 80 26.86 80 60z" stroke="#fff" fill="#3278cc"/><use xlink:href="#C" transform="matrix(1,0,0,1,2110.160732282624,1104) translate(28.370370370370367 28.888888888888886)"/><use xlink:href="#D" transform="matrix(1,0,0,1,2110.160732282624,1104) translate(-8.617283950617292 50.22222222222222)"/><path d="M2246.16 1340c0 33.14-35.82 60-80 60s-80-26.86-80-60 35.82-60 80-60 80 26.86 80 60z" stroke="#fff" fill="#3278cc"/><use xlink:href="#E" transform="matrix(1,0,0,1,2110.160732282624,1304) translate(23.50617283950617 28.888888888888886)"/><use xlink:href="#F" transform="matrix(1,0,0,1,2110.160732282624,1304) translate(21.01234567901234 50.22222222222222)"/><path d="M2560 1140c0 33.14-35.82 60-80 60s-80-26.86-80-60 35.82-60 80-60 80 26.86 80 60z" stroke="#fff" fill="#3278cc"/><use xlink:href="#G" transform="matrix(1,0,0,1,2424,1104) translate(33.407407407407405 28.888888888888886)"/><use xlink:href="#D" transform="matrix(1,0,0,1,2424,1104) translate(-8.617283950617292 50.22222222222222)"/><path d="M2252.2 1140.5h-5.04v-1h5.05zm15.15 0h-10.1v-1h10.1zm8.32 0h-3.27v-1h3.27zm112.83 0h-10.1v-1h10.1zm10.1 0h-5.06v-1h5.05zm-25.25 0h-2.86v-1h2.85z" stroke="#333" stroke-width=".05" fill="#333"/><path d="M2247.17 1140.5h-.52v-1h.52z" fill="#333"/><path d="M2247.2 1140.53h-.58l.02-.52v-.53h.56zm-.52-1v.95h.47v-.94zM2399.5 1140l-17.94 10.6-.5-.85 16.48-9.75-16.5-9.75.52-.86z" stroke="#333" stroke-width=".05" fill="#333"/><use xlink:href="#y" transform="matrix(1,0,0,1,2275.6729587339046,1129.3333333333333) translate(0 14.222222222222223)"/><path d="M2166.66 1278.6h-1v-5.18h1zm0-10.35h-1v-10.35h1zm0-15.52h-1v-2.06h1zm0-23.4h-1v-2.47h1zm0-7.64h-1v-10.35h1zm0-15.53h-1V1201h1z" stroke="#333" stroke-width=".05" fill="#333"/><path d="M2166.15 1200.5h.5v.5h-1v-.52z" fill="#333"/><path d="M2166.15 1200.48h.54v.56h-1.06v-.58zm-.46.5h.94v-.46h-.95zM2176.77 1261.56l-10.6 17.94-10.62-17.94.86-.5 9.76 16.48 9.75-16.5z" stroke="#333" stroke-width=".05" fill="#333"/><use xlink:href="#y" transform="matrix(1,0,0,1,2118.7533248752165,1229.3333333333333) translate(0 14.222222222222223)"/><path d="M1840.7 590.46l244.76 549.08M1840.7 590.47l-1.42-3.2" stroke="#333" fill="none"/><path d="M2085.66 1140v.4l.04.9-.7-1.56.68-.3z" stroke="#333" stroke-width=".05" fill="#333"/><path d="M1840.66 590.48l244.85 749.04M1840.67 590.5l-1.1-3.35" stroke="#333" fill="none"/><path d="M2085.66 1340v.4l.06 1.38-.7-2.1.66-.23z" stroke="#333" stroke-width=".05" fill="#333"/><path d="M1171.63 1460c0 33.14-35.82 60-80 60s-80-26.86-80-60 35.82-60 80-60 80 26.86 80 60z" stroke="#fff" fill="#3278cc"/><use xlink:href="#H" transform="matrix(1,0,0,1,1035.6321867716347,1424) translate(29.407407407407405 28.888888888888886)"/><use xlink:href="#I" transform="matrix(1,0,0,1,1035.6321867716347,1424) translate(25.456790123456788 50.22222222222222)"/><path d="M1171.63 1300c0 33.14-35.82 60-80 60s-80-26.86-80-60 35.82-60 80-60 80 26.86 80 60z" stroke="#fff" fill="#3278cc"/><g><use xlink:href="#J" transform="matrix(1,0,0,1,1035.6321867716347,1264) translate(26.864197530864192 39.55555555555556)"/></g><path d="M1011.06 1299.3l-.63.77L140.58 590.7l.63-.77z" stroke="#333" stroke-width=".05" fill="#333"/><path d="M141.22 589.94l-.63.77-2.74-2.2.64-.78z" stroke="#333" stroke-width=".05" fill="#333"/><path d="M1011.15 1299.37l-.02.62v.65l-.7-.6.62-.76z" fill="#333"/><path d="M1011.18 1299.36l-.02.63v.7l-.78-.63.67-.82zm-.73.7l.67.54V1299.38l-.07-.06zM1011.13 1459.3l-.7.7L140.5 590.7l.7-.7z" stroke="#333" stroke-width=".05" fill="#333"/><path d="M141.22 590l-.7.72-2.5-2.5.72-.7z" stroke="#333" stroke-width=".05" fill="#333"/><path d="M1011.15 1459.3l-.02.7v.4l.02.32-.73-.73.7-.72z" fill="#333"/><path d="M1011.18 1459.3l-.02.7v.78l-.78-.8.74-.73zm-.73.7l.67.66v-1.35z" stroke="#333" stroke-width=".05" fill="#333"/><path d="M1840.16 590.36l-667.7 709.28M1840.15 590.37l2.4-2.55" stroke="#333" fill="none"/><path d="M1172.85 1299.97l-.74.78.03-.74v-.72z" stroke="#333" stroke-width=".05" fill="#333"/><path d="M1840.2 590.4l-667.76 869.2M1840.2 590.4l2.13-2.78" stroke="#333" fill="none"/><path d="M1172.84 1459.9l-.73.96.03-.85v-.66z" stroke="#333" stroke-width=".05" fill="#333"/><path d="M1171.63 1120c0 33.14-35.82 60-80 60s-80-26.86-80-60 35.82-60 80-60 80 26.86 80 60z" stroke="#fff" fill="#3278cc"/><g><use xlink:href="#K" transform="matrix(1,0,0,1,1035.6321867716347,1084) translate(20.98765432098765 28.888888888888886)"/><use xlink:href="#L" transform="matrix(1,0,0,1,1035.6321867716347,1084) translate(25.456790123456788 50.22222222222222)"/></g><path d="M1840.1 590.3l-667.58 529.4M1840.1 590.32l2.76-2.18" stroke="#333" fill="none"/><path d="M1172.84 1120.07l-.73.58.03-.64v-.63l.1-.08zM1010.97 1119.3l-.52.87L140.67 590.7l.52-.87z" stroke="#333" stroke-width=".05" fill="#333"/><path d="M141.2 589.84l-.52.85-3-1.83.52-.86z" stroke="#333" stroke-width=".05" fill="#333"/><path d="M1011.15 1119.43l-.02.56V1120.6l-.7-.44.52-.85z" fill="#333"/><path d="M1011.18 1119.4l-.02.6v.64l-.76-.47.55-.9zm-.7.75l.63.4v-.56l.02-.56-.16-.1z" stroke="#333" stroke-width=".05" fill="#333"/><defs><path fill="#333" d="M6 0l48-248h52L58 0H6" id="M"/><path fill="#333" d="M151-194c95 0 34 128 28 194h-49l25-134c0-29-45-25-59-9C67-111 69-48 56 0H6l36-190h47l-4 32c15-20 33-36 66-36" id="N"/><path fill="#333" d="M67-101c-8 29-7 73 27 71 23-2 32-16 39-37l48 9C170-19 141 4 91 4 36 4 7-28 12-86c6-75 61-124 140-103 26 7 40 29 43 59l-50 4c-1-20-9-34-29-34-35 0-41 29-49 59" id="O"/><path fill="#333" d="M6 0l51-261h49L55 0H6" id="P"/><path fill="#333" d="M69 3c-96 0-34-126-28-193h49L65-57c6 42 62 18 71-6 14-38 17-86 28-127h50L178 0h-47c0-11 4-26 3-33-14 20-30 37-65 36" id="Q"/><path fill="#333" d="M50-224l7-37h49l-7 37H50zM6 0l37-190h49L55 0H6" id="R"/><path fill="#333" d="M84-151c13-25 34-51 72-40l-8 41C67-170 71-64 56 0H6l36-190h47" id="S"/><g id="a"><use transform="matrix(0.06172839506172839,0,0,0.06172839506172839,0,0)" xlink:href="#M"/><use transform="matrix(0.06172839506172839,0,0,0.06172839506172839,6.172839506172839,0)" xlink:href="#N"/><use transform="matrix(0.06172839506172839,0,0,0.06172839506172839,19.691358024691358,0)" xlink:href="#O"/><use transform="matrix(0.06172839506172839,0,0,0.06172839506172839,32.03703703703704,0)" xlink:href="#P"/><use transform="matrix(0.06172839506172839,0,0,0.06172839506172839,38.20987654320988,0)" xlink:href="#Q"/><use transform="matrix(0.06172839506172839,0,0,0.06172839506172839,51.7283950617284,0)" xlink:href="#R"/><use transform="matrix(0.06172839506172839,0,0,0.06172839506172839,57.90123456790124,0)" xlink:href="#S"/></g><path fill="#333" d="M114-194c63-2 87 48 72 110H63c-3 28 1 55 31 54 21-1 32-13 37-29l44 13C160-14 137 4 91 4 41 4 11-22 11-73c0-71 33-119 103-121zm30 77c14-47-50-61-67-22-3 6-6 13-8 22h75" id="T"/><path fill="#333" d="M72-63c-8 23 5 39 32 30L98-1C54 14 12-6 23-64l18-93H15l7-33h28l24-45h31l-8 45h35l-6 33H90" id="U"/><g id="b"><use transform="matrix(0.06172839506172839,0,0,0.06172839506172839,0,0)" xlink:href="#O"/><use transform="matrix(0.06172839506172839,0,0,0.06172839506172839,12.345679012345679,0)" xlink:href="#P"/><use transform="matrix(0.06172839506172839,0,0,0.06172839506172839,18.51851851851852,0)" xlink:href="#R"/><use transform="matrix(0.06172839506172839,0,0,0.06172839506172839,24.691358024691358,0)" xlink:href="#T"/><use transform="matrix(0.06172839506172839,0,0,0.06172839506172839,37.03703703703704,0)" xlink:href="#N"/><use transform="matrix(0.06172839506172839,0,0,0.06172839506172839,50.55555555555556,0)" xlink:href="#U"/><use transform="matrix(0.06172839506172839,0,0,0.06172839506172839,57.901234567901234,0)" xlink:href="#T"/></g><path fill="#333" d="M30-248c118-7 216 8 213 122C240-48 200 0 122 0H30v-248zM63-27c89 8 146-16 146-99s-60-101-146-95v194" id="V"/><path fill="#333" d="M33 0v-248h34V0H33" id="W"/><path fill="#333" d="M185-189c-5-48-123-54-124 2 14 75 158 14 163 119 3 78-121 87-175 55-17-10-28-26-33-46l33-7c5 56 141 63 141-1 0-78-155-14-162-118-5-82 145-84 179-34 5 7 8 16 11 25" id="X"/><path fill="#333" d="M30-248c87 1 191-15 191 75 0 78-77 80-158 76V0H30v-248zm33 125c57 0 124 11 124-50 0-59-68-47-124-48v98" id="Y"/><path fill="#333" d="M140-251c81 0 123 46 123 126C263-46 219 4 140 4 59 4 17-45 17-125s42-126 123-126zm0 227c63 0 89-41 89-101s-29-99-89-99c-61 0-89 39-89 99S79-25 140-24" id="Z"/><path fill="#333" d="M190 0L58-211 59 0H30v-248h39L202-35l-2-213h31V0h-41" id="aa"/><path fill="#333" d="M160-131c35 5 61 23 61 61C221 17 115-2 30 0v-248c76 3 177-17 177 60 0 33-19 50-47 57zm-97-11c50-1 110 9 110-42 0-47-63-36-110-37v79zm0 115c55-2 124 14 124-45 0-56-70-42-124-44v89" id="ab"/><path fill="#333" d="M30 0v-248h33v221h125V0H30" id="ac"/><path fill="#333" d="M209 0H11v-25l151-195H24v-28h176v25L50-27h159V0" id="ad"/><path fill="#333" d="M205 0l-28-72H64L36 0H1l101-248h38L239 0h-34zm-38-99l-47-123c-12 45-31 82-46 123h93" id="ae"/><path fill="#333" d="M233-177c-1 41-23 64-60 70L243 0h-38l-65-103H63V0H30v-248c88 3 205-21 203 71zM63-129c60-2 137 13 137-47 0-61-80-42-137-45v92" id="af"/><g id="c"><use transform="matrix(0.05,0,0,0.05,0,0)" xlink:href="#V"/><use transform="matrix(0.05,0,0,0.05,12.950000000000001,0)" xlink:href="#W"/><use transform="matrix(0.05,0,0,0.05,17.950000000000003,0)" xlink:href="#X"/><use transform="matrix(0.05,0,0,0.05,29.950000000000003,0)" xlink:href="#Y"/><use transform="matrix(0.05,0,0,0.05,41.95,0)" xlink:href="#Z"/><use transform="matrix(0.05,0,0,0.05,55.95,0)" xlink:href="#aa"/><use transform="matrix(0.05,0,0,0.05,68.9,0)" xlink:href="#W"/><use transform="matrix(0.05,0,0,0.05,73.9,0)" xlink:href="#ab"/><use transform="matrix(0.05,0,0,0.05,85.9,0)" xlink:href="#W"/><use transform="matrix(0.05,0,0,0.05,90.9,0)" xlink:href="#ac"/><use transform="matrix(0.05,0,0,0.05,100.9,0)" xlink:href="#W"/><use transform="matrix(0.05,0,0,0.05,105.9,0)" xlink:href="#ad"/><use transform="matrix(0.05,0,0,0.05,116.85000000000001,0)" xlink:href="#ae"/><use transform="matrix(0.05,0,0,0.05,128.85000000000002,0)" xlink:href="#af"/></g><use transform="matrix(0.05,0,0,0.05,0,0)" xlink:href="#ae" id="d"/><path fill="#333" d="M232-93c-1 65-40 97-104 97C67 4 28-28 28-90v-158h33c8 89-33 224 67 224 102 0 64-133 71-224h33v155" id="ag"/><path fill="#333" d="M212-179c-10-28-35-45-73-45-59 0-87 40-87 99 0 60 29 101 89 101 43 0 62-24 78-52l27 14C228-24 195 4 139 4 59 4 22-46 18-125c-6-104 99-153 187-111 19 9 31 26 39 46" id="ah"/><g id="e"><use transform="matrix(0.05,0,0,0.05,0,0)" xlink:href="#ab"/><use transform="matrix(0.05,0,0,0.05,12,0)" xlink:href="#ag"/><use transform="matrix(0.05,0,0,0.05,24.950000000000003,0)" xlink:href="#X"/><use transform="matrix(0.05,0,0,0.05,36.95,0)" xlink:href="#ah"/><use transform="matrix(0.05,0,0,0.05,49.900000000000006,0)" xlink:href="#ae"/></g><path fill="#333" d="M30 0v-248h187v28H63v79h144v27H63v87h162V0H30" id="ai"/><use transform="matrix(0.05,0,0,0.05,0,0)" xlink:href="#ai" id="f"/><path fill="#333" d="M127-220V0H93v-220H8v-28h204v28h-85" id="aj"/><path fill="#333" d="M212-179c-10-28-35-45-73-45-59 0-87 40-87 99 0 60 29 101 89 101 43 0 62-24 78-52l27 14C228-24 195 4 139 4 59 4 22-46 18-125c-6-104 99-153 187-111 19 9 31 26 39 46zM142 18c19-1 33 8 33 26 0 31-30 33-64 32V58c18 2 39 4 41-13 1-15-18-13-34-13l12-32h19" id="ak"/><path fill="#333" d="M184-316c-4 23-8 48-36 47s-64-43-75 0H57c4-23 8-48 36-47s64 44 74 0h17zM205 0l-28-72H64L36 0H1l101-248h38L239 0h-34zm-38-99l-47-123c-12 45-31 82-46 123h93" id="al"/><g id="g"><use transform="matrix(0.05,0,0,0.05,0,0)" xlink:href="#W"/><use transform="matrix(0.05,0,0,0.05,5,0)" xlink:href="#aa"/><use transform="matrix(0.05,0,0,0.05,17.950000000000003,0)" xlink:href="#aj"/><use transform="matrix(0.05,0,0,0.05,28.900000000000006,0)" xlink:href="#ai"/><use transform="matrix(0.05,0,0,0.05,40.900000000000006,0)" xlink:href="#af"/><use transform="matrix(0.05,0,0,0.05,53.85,0)" xlink:href="#ae"/><use transform="matrix(0.05,0,0,0.05,65.85000000000001,0)" xlink:href="#ak"/><use transform="matrix(0.05,0,0,0.05,78.80000000000001,0)" xlink:href="#al"/><use transform="matrix(0.05,0,0,0.05,90.80000000000001,0)" xlink:href="#Z"/></g><path fill="#333" d="M240 0l2-218c-23 76-54 145-80 218h-23L58-218 59 0H30v-248h44l77 211c21-75 51-140 76-211h43V0h-30" id="am"/><g id="h"><use transform="matrix(0.05,0,0,0.05,0,0)" xlink:href="#ah"/><use transform="matrix(0.05,0,0,0.05,12.950000000000001,0)" xlink:href="#Z"/><use transform="matrix(0.05,0,0,0.05,26.950000000000003,0)" xlink:href="#am"/></g><g id="i"><use transform="matrix(0.05,0,0,0.05,0,0)" xlink:href="#ai"/><use transform="matrix(0.05,0,0,0.05,12,0)" xlink:href="#X"/><use transform="matrix(0.05,0,0,0.05,24,0)" xlink:href="#aj"/><use transform="matrix(0.05,0,0,0.05,33.6,0)" xlink:href="#ae"/><use transform="matrix(0.05,0,0,0.05,45.6,0)" xlink:href="#ab"/><use transform="matrix(0.05,0,0,0.05,57.6,0)" xlink:href="#ai"/><use transform="matrix(0.05,0,0,0.05,69.6,0)" xlink:href="#ac"/><use transform="matrix(0.05,0,0,0.05,79.6,0)" xlink:href="#ai"/><use transform="matrix(0.05,0,0,0.05,91.6,0)" xlink:href="#ah"/><use transform="matrix(0.05,0,0,0.05,104.55000000000001,0)" xlink:href="#W"/><use transform="matrix(0.05,0,0,0.05,109.55000000000001,0)" xlink:href="#am"/><use transform="matrix(0.05,0,0,0.05,124.5,0)" xlink:href="#ai"/><use transform="matrix(0.05,0,0,0.05,136.5,0)" xlink:href="#aa"/><use transform="matrix(0.05,0,0,0.05,149.45,0)" xlink:href="#aj"/><use transform="matrix(0.05,0,0,0.05,160.04999999999998,0)" xlink:href="#Z"/></g><path fill="#333" d="M87 75C49 33 22-17 22-94c0-76 28-126 65-167h31c-38 41-64 92-64 168S80 34 118 75H87" id="an"/><g id="j"><use transform="matrix(0.05,0,0,0.05,0,0)" xlink:href="#an"/><use transform="matrix(0.05,0,0,0.05,5.95,0)" xlink:href="#ab"/><use transform="matrix(0.05,0,0,0.05,17.95,0)" xlink:href="#ae"/><use transform="matrix(0.05,0,0,0.05,29.950000000000003,0)" xlink:href="#af"/><use transform="matrix(0.05,0,0,0.05,42.9,0)" xlink:href="#ai"/><use transform="matrix(0.05,0,0,0.05,54.900000000000006,0)" xlink:href="#X"/></g><path fill="#333" d="M33-261c38 41 65 92 65 168S71 34 33 75H2C39 34 66-17 66-93S39-220 2-261h31" id="ao"/><g id="k"><use transform="matrix(0.05,0,0,0.05,0,0)" xlink:href="#ab"/><use transform="matrix(0.05,0,0,0.05,12,0)" xlink:href="#ae"/><use transform="matrix(0.05,0,0,0.05,24,0)" xlink:href="#ac"/><use transform="matrix(0.05,0,0,0.05,34,0)" xlink:href="#ae"/><use transform="matrix(0.05,0,0,0.05,46,0)" xlink:href="#V"/><use transform="matrix(0.05,0,0,0.05,58.95,0)" xlink:href="#ae"/><use transform="matrix(0.05,0,0,0.05,70.95,0)" xlink:href="#X"/><use transform="matrix(0.05,0,0,0.05,82.95,0)" xlink:href="#ao"/></g><path fill="#333" d="M144-137c-1-29-70-35-71-2 16 41 103 10 103 80C176 9 79 16 32-9 18-17 9-31 4-48l44-6c3 32 80 36 82 1-15-42-103-11-103-82 0-77 157-79 161-8" id="ap"/><path fill="#333" d="M166-52c-4 17 5 29 24 23l-3 27c-30 11-74 1-67-34C105-15 91 4 56 4 23 4 3-15 2-49c0-64 63-67 128-67 10-22 3-53-29-45-13 3-22 10-25 24l-46-5c5-64 156-77 153 0-1 33-11 60-17 90zM97-88c-44-9-64 57-19 57 31 0 42-28 47-57H97" id="aq"/><path fill="#333" d="M87-160c15-17 32-34 63-34 99 1 59 172-1 192-36 12-78 0-87-29L54 0H6l52-261h49zm71 38c0-24-5-37-29-37-46 0-55 46-57 89-1 25 12 40 35 40 44 0 51-50 51-92" id="ar"/><path fill="#333" d="M255-194c90 0 29 129 24 194h-49l25-136c-7-39-53-14-60 9-12 38-18 85-28 127h-49l25-136c2-29-39-23-50-7C69-108 68-47 56 0H6l36-190h48c-1 10-6 24-4 32 12-20 27-36 57-36s46 15 50 41c14-21 29-41 62-41" id="as"/><path fill="#333" d="M124-194c51 0 84 22 84 74C207-44 167 4 94 4 43 4 11-23 11-74c0-74 41-120 113-120zM99-30c46 0 58-42 58-86 0-27-11-44-37-44-44 0-55 40-57 84-1 27 10 45 36 46" id="at"/><g id="l"><use transform="matrix(0.06172839506172839,0,0,0.06172839506172839,0,0)" xlink:href="#T"/><use transform="matrix(0.06172839506172839,0,0,0.06172839506172839,12.345679012345679,0)" xlink:href="#ap"/><use transform="matrix(0.06172839506172839,0,0,0.06172839506172839,24.691358024691358,0)" xlink:href="#U"/><use transform="matrix(0.06172839506172839,0,0,0.06172839506172839,32.03703703703704,0)" xlink:href="#aq"/><use transform="matrix(0.06172839506172839,0,0,0.06172839506172839,44.382716049382715,0)" xlink:href="#ar"/><use transform="matrix(0.06172839506172839,0,0,0.06172839506172839,57.901234567901234,0)" xlink:href="#T"/><use transform="matrix(0.06172839506172839,0,0,0.06172839506172839,70.24691358024691,0)" xlink:href="#P"/><use transform="matrix(0.06172839506172839,0,0,0.06172839506172839,76.41975308641975,0)" xlink:href="#T"/><use transform="matrix(0.06172839506172839,0,0,0.06172839506172839,88.76543209876543,0)" xlink:href="#O"/><use transform="matrix(0.06172839506172839,0,0,0.06172839506172839,101.11111111111111,0)" xlink:href="#R"/><use transform="matrix(0.06172839506172839,0,0,0.06172839506172839,107.28395061728395,0)" xlink:href="#as"/><use transform="matrix(0.06172839506172839,0,0,0.06172839506172839,127.03703703703702,0)" xlink:href="#T"/><use transform="matrix(0.06172839506172839,0,0,0.06172839506172839,139.3827160493827,0)" xlink:href="#N"/><use transform="matrix(0.06172839506172839,0,0,0.06172839506172839,152.9012345679012,0)" xlink:href="#U"/><use transform="matrix(0.06172839506172839,0,0,0.06172839506172839,160.24691358024688,0)" xlink:href="#at"/></g><path fill="#333" d="M125-24c46 0 70-25 89-51l25 16C214-24 183 4 123 4 8 4-5-146 60-208c32-50 158-61 191-5 5 7 9 14 11 22l-32 10c-9-28-33-43-69-43-74 0-108 51-108 125 0 46 24 75 72 75" id="au"/><path fill="#333" d="M6 0l50-261h32L37 0H6" id="av"/><path fill="#333" d="M50-231l6-30h32l-6 30H50zM6 0l37-190h31L37 0H6" id="aw"/><path fill="#333" d="M111-194c62-3 86 47 72 106H45c-7 38 6 69 45 68 27-1 43-14 53-32l24 11C152-15 129 4 87 4 38 3 12-23 12-71c0-70 32-119 99-123zm44 81c14-66-71-72-95-28-4 8-8 17-11 28h106" id="ax"/><path fill="#333" d="M67-158c22-48 132-52 116 29L158 0h-32l25-140c3-38-53-32-70-12C52-117 51-52 38 0H6l36-190h30" id="ay"/><path fill="#333" d="M51-54c-9 22 5 41 31 30L79-1C43 14 10-4 19-52l22-115H19l5-23h22l19-43h21l-9 43h35l-4 23H73" id="az"/><g id="m"><use transform="matrix(0.04938271604938272,0,0,0.04938271604938272,0,0)" xlink:href="#au"/><use transform="matrix(0.04938271604938272,0,0,0.04938271604938272,12.790123456790125,0)" xlink:href="#av"/><use transform="matrix(0.04938271604938272,0,0,0.04938271604938272,16.69135802469136,0)" xlink:href="#aw"/><use transform="matrix(0.04938271604938272,0,0,0.04938271604938272,20.592592592592595,0)" xlink:href="#ax"/><use transform="matrix(0.04938271604938272,0,0,0.04938271604938272,30.46913580246914,0)" xlink:href="#ay"/><use transform="matrix(0.04938271604938272,0,0,0.04938271604938272,40.345679012345684,0)" xlink:href="#az"/><use transform="matrix(0.04938271604938272,0,0,0.04938271604938272,45.283950617283956,0)" xlink:href="#ax"/></g><path fill="#fff" d="M125-24c46 0 70-25 89-51l25 16C214-24 183 4 123 4 8 4-5-146 60-208c32-50 158-61 191-5 5 7 9 14 11 22l-32 10c-9-28-33-43-69-43-74 0-108 51-108 125 0 46 24 75 72 75" id="aA"/><path fill="#fff" d="M165-48c-4 18 1 34 23 27l-3 20c-29 8-62 0-52-35h-2C116-14 99 4 63 4 30 4 8-16 8-49c0-68 71-67 138-67 10-26 0-56-31-54-26 1-42 9-47 31l-32-5c8-67 160-71 144 15-5 28-9 54-15 81zM42-50c3 52 80 24 89-6 7-12 7-24 11-38-47 1-103-4-100 44" id="aB"/><path fill="#fff" d="M133-28C103 26-5 8 13-77c13-62 24-115 90-117 29-1 46 15 56 35l19-102h32L160 0h-30zM45-64c-2 27 10 43 35 43 54-1 69-50 69-103 0-29-15-46-42-46-53-1-58 58-62 106" id="aC"/><path fill="#fff" d="M55-144c13 50 104 24 104 88C159 21 15 23 1-39l26-10c6 40 102 42 102-4-13-50-104-23-104-87 0-71 143-71 148-8l-29 4c-5-35-85-37-89 0" id="aD"/><path fill="#fff" d="M51-54c-9 22 5 41 31 30L79-1C43 14 10-4 19-52l22-115H19l5-23h22l19-43h21l-9 43h35l-4 23H73" id="aE"/><path fill="#fff" d="M66-151c12-25 30-51 66-40l-6 26C45-176 58-65 38 0H6l36-190h30" id="aF"/><g id="n"><use transform="matrix(0.04938271604938272,0,0,0.04938271604938272,0,0)" xlink:href="#aA"/><use transform="matrix(0.04938271604938272,0,0,0.04938271604938272,12.790123456790125,0)" xlink:href="#aB"/><use transform="matrix(0.04938271604938272,0,0,0.04938271604938272,22.66666666666667,0)" xlink:href="#aC"/><use transform="matrix(0.04938271604938272,0,0,0.04938271604938272,32.543209876543216,0)" xlink:href="#aB"/><use transform="matrix(0.04938271604938272,0,0,0.04938271604938272,42.41975308641976,0)" xlink:href="#aD"/><use transform="matrix(0.04938271604938272,0,0,0.04938271604938272,51.308641975308646,0)" xlink:href="#aE"/><use transform="matrix(0.04938271604938272,0,0,0.04938271604938272,56.24691358024692,0)" xlink:href="#aF"/><use transform="matrix(0.04938271604938272,0,0,0.04938271604938272,62.12345679012346,0)" xlink:href="#aB"/><use transform="matrix(0.04938271604938272,0,0,0.04938271604938272,72,0)" xlink:href="#aF"/></g><path fill="#fff" d="M6 0l50-261h32L37 0H6" id="aG"/><path fill="#fff" d="M50-231l6-30h32l-6 30H50zM6 0l37-190h31L37 0H6" id="aH"/><path fill="#fff" d="M111-194c62-3 86 47 72 106H45c-7 38 6 69 45 68 27-1 43-14 53-32l24 11C152-15 129 4 87 4 38 3 12-23 12-71c0-70 32-119 99-123zm44 81c14-66-71-72-95-28-4 8-8 17-11 28h106" id="aI"/><path fill="#fff" d="M67-158c22-48 132-52 116 29L158 0h-32l25-140c3-38-53-32-70-12C52-117 51-52 38 0H6l36-190h30" id="aJ"/><g id="o"><use transform="matrix(0.04938271604938272,0,0,0.04938271604938272,0,0)" xlink:href="#aA"/><use transform="matrix(0.04938271604938272,0,0,0.04938271604938272,12.790123456790125,0)" xlink:href="#aG"/><use transform="matrix(0.04938271604938272,0,0,0.04938271604938272,16.69135802469136,0)" xlink:href="#aH"/><use transform="matrix(0.04938271604938272,0,0,0.04938271604938272,20.592592592592595,0)" xlink:href="#aI"/><use transform="matrix(0.04938271604938272,0,0,0.04938271604938272,30.46913580246914,0)" xlink:href="#aJ"/><use transform="matrix(0.04938271604938272,0,0,0.04938271604938272,40.345679012345684,0)" xlink:href="#aE"/><use transform="matrix(0.04938271604938272,0,0,0.04938271604938272,45.283950617283956,0)" xlink:href="#aI"/></g><path fill="#fff" d="M30-147c31-64 166-65 159 27C183-49 158 1 86 4 9 8 1-88 30-147zM88-20c53 0 68-48 68-100 0-31-11-51-44-50-52 1-68 46-68 97 0 32 13 53 44 53" id="aK"/><path fill="#fff" d="M76-167L44 0H12l33-167H18l4-23h27c3-47 25-81 82-69l-4 24c-35-8-44 15-46 45h37l-5 23H76" id="aL"/><path fill="#fff" d="M248-111c6-24 9-61-24-58-72 9-57 108-77 169h-31l26-142c3-37-50-30-64-10C52-115 50-51 37 0H6l36-190h30c-1 10-6 24-4 32 13-43 101-52 105 5 13-22 29-41 61-41 90 0 28 129 23 194h-31" id="aM"/><g id="p"><use transform="matrix(0.04938271604938272,0,0,0.04938271604938272,0,0)" xlink:href="#aA"/><use transform="matrix(0.04938271604938272,0,0,0.04938271604938272,12.790123456790125,0)" xlink:href="#aK"/><use transform="matrix(0.04938271604938272,0,0,0.04938271604938272,22.66666666666667,0)" xlink:href="#aJ"/><use transform="matrix(0.04938271604938272,0,0,0.04938271604938272,32.543209876543216,0)" xlink:href="#aL"/><use transform="matrix(0.04938271604938272,0,0,0.04938271604938272,37.48148148148149,0)" xlink:href="#aH"/><use transform="matrix(0.04938271604938272,0,0,0.04938271604938272,41.38271604938272,0)" xlink:href="#aF"/><use transform="matrix(0.04938271604938272,0,0,0.04938271604938272,47.25925925925927,0)" xlink:href="#aM"/><use transform="matrix(0.04938271604938272,0,0,0.04938271604938272,62.0246913580247,0)" xlink:href="#aB"/><use transform="matrix(0.04938271604938272,0,0,0.04938271604938272,71.90123456790124,0)" xlink:href="#aF"/></g><path fill="#fff" d="M44-68c0 29 11 47 38 47 30 0 42-19 51-41l28 9C148-21 126 4 82 4 31 4 10-29 12-85c3-77 74-140 146-93 12 8 15 23 18 40l-31 5c-1-22-13-36-36-36-52 0-65 49-65 101" id="aN"/><g id="q"><use transform="matrix(0.04938271604938272,0,0,0.04938271604938272,0,0)" xlink:href="#aN"/><use transform="matrix(0.04938271604938272,0,0,0.04938271604938272,8.88888888888889,0)" xlink:href="#aB"/><use transform="matrix(0.04938271604938272,0,0,0.04938271604938272,18.765432098765434,0)" xlink:href="#aC"/><use transform="matrix(0.04938271604938272,0,0,0.04938271604938272,28.641975308641978,0)" xlink:href="#aB"/><use transform="matrix(0.04938271604938272,0,0,0.04938271604938272,38.51851851851852,0)" xlink:href="#aD"/><use transform="matrix(0.04938271604938272,0,0,0.04938271604938272,47.407407407407405,0)" xlink:href="#aE"/><use transform="matrix(0.04938271604938272,0,0,0.04938271604938272,52.34567901234567,0)" xlink:href="#aF"/><use transform="matrix(0.04938271604938272,0,0,0.04938271604938272,58.222222222222214,0)" xlink:href="#aK"/></g><path fill="#fff" d="M212-179c-10-28-35-45-73-45-59 0-87 40-87 99 0 60 29 101 89 101 43 0 62-24 78-52l27 14C228-24 195 4 139 4 59 4 22-46 18-125c-6-104 99-153 187-111 19 9 31 26 39 46" id="aO"/><path fill="#fff" d="M141-36C126-15 110 5 73 4 37 3 15-17 15-53c-1-64 63-63 125-63 3-35-9-54-41-54-24 1-41 7-42 31l-33-3c5-37 33-52 76-52 45 0 72 20 72 64v82c-1 20 7 32 28 27v20c-31 9-61-2-59-35zM48-53c0 20 12 33 32 33 41-3 63-29 60-74-43 2-92-5-92 41" id="aP"/><path fill="#fff" d="M85-194c31 0 48 13 60 33l-1-100h32l1 261h-30c-2-10 0-23-3-31C134-8 116 4 85 4 32 4 16-35 15-94c0-66 23-100 70-100zm9 24c-40 0-46 34-46 75 0 40 6 74 45 74 42 0 51-32 51-76 0-42-9-74-50-73" id="aQ"/><path fill="#fff" d="M135-143c-3-34-86-38-87 0 15 53 115 12 119 90S17 21 10-45l28-5c4 36 97 45 98 0-10-56-113-15-118-90-4-57 82-63 122-42 12 7 21 19 24 35" id="aR"/><path fill="#fff" d="M59-47c-2 24 18 29 38 22v24C64 9 27 4 27-40v-127H5v-23h24l9-43h21v43h35v23H59v120" id="aS"/><path fill="#fff" d="M114-163C36-179 61-72 57 0H25l-1-190h30c1 12-1 29 2 39 6-27 23-49 58-41v29" id="aT"/><g id="r"><use transform="matrix(0.04938271604938272,0,0,0.04938271604938272,0,0)" xlink:href="#aO"/><use transform="matrix(0.04938271604938272,0,0,0.04938271604938272,12.790123456790125,0)" xlink:href="#aP"/><use transform="matrix(0.04938271604938272,0,0,0.04938271604938272,22.66666666666667,0)" xlink:href="#aQ"/><use transform="matrix(0.04938271604938272,0,0,0.04938271604938272,32.543209876543216,0)" xlink:href="#aP"/><use transform="matrix(0.04938271604938272,0,0,0.04938271604938272,42.41975308641976,0)" xlink:href="#aR"/><use transform="matrix(0.04938271604938272,0,0,0.04938271604938272,51.308641975308646,0)" xlink:href="#aS"/><use transform="matrix(0.04938271604938272,0,0,0.04938271604938272,56.24691358024692,0)" xlink:href="#aT"/><use transform="matrix(0.04938271604938272,0,0,0.04938271604938272,62.12345679012346,0)" xlink:href="#aP"/><use transform="matrix(0.04938271604938272,0,0,0.04938271604938272,72,0)" xlink:href="#aT"/></g><path fill="#fff" d="M30-248c87 1 191-15 191 75 0 78-77 80-158 76V0H30v-248zm33 125c57 0 124 11 124-50 0-59-68-47-124-48v98" id="aU"/><path fill="#fff" d="M100-194c63 0 86 42 84 106H49c0 40 14 67 53 68 26 1 43-12 49-29l28 8c-11 28-37 45-77 45C44 4 14-33 15-96c1-61 26-98 85-98zm52 81c6-60-76-77-97-28-3 7-6 17-6 28h103" id="aV"/><path fill="#fff" d="M101-234c-31-9-42 10-38 44h38v23H63V0H32v-167H5v-23h27c-7-52 17-82 69-68v24" id="aW"/><path fill="#fff" d="M24-231v-30h32v30H24zM24 0v-190h32V0H24" id="aX"/><path fill="#fff" d="M24 0v-261h32V0H24" id="aY"/><g id="s"><use transform="matrix(0.04938271604938272,0,0,0.04938271604938272,0,0)" xlink:href="#aU"/><use transform="matrix(0.04938271604938272,0,0,0.04938271604938272,11.851851851851853,0)" xlink:href="#aV"/><use transform="matrix(0.04938271604938272,0,0,0.04938271604938272,21.7283950617284,0)" xlink:href="#aT"/><use transform="matrix(0.04938271604938272,0,0,0.04938271604938272,27.604938271604947,0)" xlink:href="#aW"/><use transform="matrix(0.04938271604938272,0,0,0.04938271604938272,32.543209876543216,0)" xlink:href="#aX"/><use transform="matrix(0.04938271604938272,0,0,0.04938271604938272,36.44444444444445,0)" xlink:href="#aY"/></g><path fill="#333" d="M23-100v-36l175-74v27L47-118l151 64v27" id="aZ"/><path fill="#333" d="M44-68c0 29 11 47 38 47 30 0 42-19 51-41l28 9C148-21 126 4 82 4 31 4 10-29 12-85c3-77 74-140 146-93 12 8 15 23 18 40l-31 5c-1-22-13-36-36-36-52 0-65 49-65 101" id="ba"/><path fill="#333" d="M67 3c-93-2-31-127-26-193h32L48-50c-3 39 53 32 70 12 30-34 30-101 43-152h32L157 0h-30c1-10 6-24 4-33-14 20-29 37-64 36" id="bb"/><path fill="#333" d="M133-28C103 26-5 8 13-77c13-62 24-115 90-117 29-1 46 15 56 35l19-102h32L160 0h-30zM45-64c-2 27 10 43 35 43 54-1 69-50 69-103 0-29-15-46-42-46-53-1-58 58-62 106" id="bc"/><path fill="#333" d="M23-27v-27l151-64-151-65v-27l175 74v36" id="bd"/><g id="t"><use transform="matrix(0.04938271604938272,0,0,0.04938271604938272,0,0)" xlink:href="#aZ"/><use transform="matrix(0.04938271604938272,0,0,0.04938271604938272,10.370370370370372,0)" xlink:href="#aZ"/><use transform="matrix(0.04938271604938272,0,0,0.04938271604938272,20.740740740740744,0)" xlink:href="#aw"/><use transform="matrix(0.04938271604938272,0,0,0.04938271604938272,24.641975308641978,0)" xlink:href="#ay"/><use transform="matrix(0.04938271604938272,0,0,0.04938271604938272,34.51851851851852,0)" xlink:href="#ba"/><use transform="matrix(0.04938271604938272,0,0,0.04938271604938272,43.407407407407405,0)" xlink:href="#av"/><use transform="matrix(0.04938271604938272,0,0,0.04938271604938272,47.30864197530864,0)" xlink:href="#bb"/><use transform="matrix(0.04938271604938272,0,0,0.04938271604938272,57.185185185185176,0)" xlink:href="#bc"/><use transform="matrix(0.04938271604938272,0,0,0.04938271604938272,67.06172839506172,0)" xlink:href="#ax"/><use transform="matrix(0.04938271604938272,0,0,0.04938271604938272,76.93827160493827,0)" xlink:href="#bd"/><use transform="matrix(0.04938271604938272,0,0,0.04938271604938272,87.30864197530863,0)" xlink:href="#bd"/></g><path fill="#fff" d="M248-139C247-14 144 9 11 0l48-248c105-6 190 8 189 109zm-34 0c1-70-52-87-126-82L50-27c98 7 163-21 164-112" id="be"/><path fill="#fff" d="M67-162c32-53 139-36 121 50C175-51 163 2 97 4 68 4 52-11 42-31 38 6 28 39 22 75H-9l50-265h29c-1 10 0 20-3 28zm89 36c0-26-10-43-35-43-54 0-67 50-69 103-1 29 14 45 42 46 53 0 62-58 62-106" id="bf"/><g id="u"><use transform="matrix(0.04938271604938272,0,0,0.04938271604938272,0,0)" xlink:href="#be"/><use transform="matrix(0.04938271604938272,0,0,0.04938271604938272,12.790123456790125,0)" xlink:href="#aH"/><use transform="matrix(0.04938271604938272,0,0,0.04938271604938272,16.69135802469136,0)" xlink:href="#aD"/><use transform="matrix(0.04938271604938272,0,0,0.04938271604938272,25.58024691358025,0)" xlink:href="#bf"/><use transform="matrix(0.04938271604938272,0,0,0.04938271604938272,35.4567901234568,0)" xlink:href="#aB"/><use transform="matrix(0.04938271604938272,0,0,0.04938271604938272,45.33333333333334,0)" xlink:href="#aF"/><use transform="matrix(0.04938271604938272,0,0,0.04938271604938272,51.209876543209894,0)" xlink:href="#aB"/><use transform="matrix(0.04938271604938272,0,0,0.04938271604938272,61.08641975308644,0)" xlink:href="#aF"/></g><path fill="#fff" d="M18-82l6-28h88l-6 28H18" id="bg"/><g id="v"><use transform="matrix(0.04938271604938272,0,0,0.04938271604938272,0,0)" xlink:href="#aI"/><use transform="matrix(0.04938271604938272,0,0,0.04938271604938272,9.876543209876544,0)" xlink:href="#bg"/><use transform="matrix(0.04938271604938272,0,0,0.04938271604938272,15.753086419753087,0)" xlink:href="#aM"/><use transform="matrix(0.04938271604938272,0,0,0.04938271604938272,30.518518518518523,0)" xlink:href="#aB"/><use transform="matrix(0.04938271604938272,0,0,0.04938271604938272,40.39506172839506,0)" xlink:href="#aH"/><use transform="matrix(0.04938271604938272,0,0,0.04938271604938272,44.2962962962963,0)" xlink:href="#aG"/></g><g id="w"><use transform="matrix(0.04938271604938272,0,0,0.04938271604938272,0,0)" xlink:href="#aC"/><use transform="matrix(0.04938271604938272,0,0,0.04938271604938272,9.876543209876544,0)" xlink:href="#aI"/></g><path fill="#fff" d="M44-68c0 29 11 47 38 47 30 0 42-19 51-41l28 9C148-21 126 4 82 4 31 4 10-29 12-85c3-77 74-140 146-93 12 8 15 23 18 40l-31 5c-1-22-13-36-36-36-52 0-65 49-65 101zM85 43c0-13-18-15-31-12L71 0h19L80 17c16 1 28 8 28 24 0 34-40 36-72 32l4-16c19 4 44 4 45-14" id="bh"/><path fill="#fff" d="M166-48c-4 18 1 34 23 27l-3 20c-29 8-62 0-52-35h-2C117-14 100 4 64 4 31 4 9-16 9-49c0-68 71-67 138-67 10-26 0-56-31-54-26 1-42 9-47 31l-32-5c8-67 160-71 144 15-5 28-9 54-15 81zM43-50c3 52 80 24 89-6 7-12 7-24 11-38-47 1-103-4-100 44zm150-208c-8 21-15 46-44 47-22 0-30-19-50-21-14 0-21 10-25 21H58c8-21 14-47 44-47 22 0 32 18 50 21 13-1 21-10 25-21h16" id="bi"/><g id="x"><use transform="matrix(0.04938271604938272,0,0,0.04938271604938272,0,0)" xlink:href="#aN"/><use transform="matrix(0.04938271604938272,0,0,0.04938271604938272,8.88888888888889,0)" xlink:href="#aK"/><use transform="matrix(0.04938271604938272,0,0,0.04938271604938272,18.765432098765434,0)" xlink:href="#aJ"/><use transform="matrix(0.04938271604938272,0,0,0.04938271604938272,28.641975308641978,0)" xlink:href="#aL"/><use transform="matrix(0.04938271604938272,0,0,0.04938271604938272,33.580246913580254,0)" xlink:href="#aH"/><use transform="matrix(0.04938271604938272,0,0,0.04938271604938272,37.48148148148149,0)" xlink:href="#aF"/><use transform="matrix(0.04938271604938272,0,0,0.04938271604938272,43.35802469135803,0)" xlink:href="#aM"/><use transform="matrix(0.04938271604938272,0,0,0.04938271604938272,58.12345679012347,0)" xlink:href="#aB"/><use transform="matrix(0.04938271604938272,0,0,0.04938271604938272,68.00000000000001,0)" xlink:href="#bh"/><use transform="matrix(0.04938271604938272,0,0,0.04938271604938272,76.8888888888889,0)" xlink:href="#bi"/><use transform="matrix(0.04938271604938272,0,0,0.04938271604938272,86.76543209876544,0)" xlink:href="#aK"/></g><path fill="#333" d="M124 0L87-78 21 0h-35l86-98-46-92h33l34 74 61-74h37l-83 92 50 98h-34" id="bj"/><g id="y"><use transform="matrix(0.04938271604938272,0,0,0.04938271604938272,0,0)" xlink:href="#aZ"/><use transform="matrix(0.04938271604938272,0,0,0.04938271604938272,10.370370370370372,0)" xlink:href="#aZ"/><use transform="matrix(0.04938271604938272,0,0,0.04938271604938272,20.740740740740744,0)" xlink:href="#ax"/><use transform="matrix(0.04938271604938272,0,0,0.04938271604938272,30.617283950617285,0)" xlink:href="#bj"/><use transform="matrix(0.04938271604938272,0,0,0.04938271604938272,39.50617283950618,0)" xlink:href="#az"/><use transform="matrix(0.04938271604938272,0,0,0.04938271604938272,44.44444444444445,0)" xlink:href="#ax"/><use transform="matrix(0.04938271604938272,0,0,0.04938271604938272,54.320987654320994,0)" xlink:href="#ay"/><use transform="matrix(0.04938271604938272,0,0,0.04938271604938272,64.19753086419755,0)" xlink:href="#bc"/><use transform="matrix(0.04938271604938272,0,0,0.04938271604938272,74.07407407407409,0)" xlink:href="#bd"/><use transform="matrix(0.04938271604938272,0,0,0.04938271604938272,84.44444444444446,0)" xlink:href="#bd"/></g><path fill="#333" d="M11 0l48-248h184l-5 28H87l-15 79h140l-5 27H67L50-27h158l-5 27H11" id="bk"/><path fill="#333" d="M55-144c13 50 104 24 104 88C159 21 15 23 1-39l26-10c6 40 102 42 102-4-13-50-104-23-104-87 0-71 143-71 148-8l-29 4c-5-35-85-37-89 0" id="bl"/><path fill="#333" d="M165-48c-4 18 1 34 23 27l-3 20c-29 8-62 0-52-35h-2C116-14 99 4 63 4 30 4 8-16 8-49c0-68 71-67 138-67 10-26 0-56-31-54-26 1-42 9-47 31l-32-5c8-67 160-71 144 15-5 28-9 54-15 81zM42-50c3 52 80 24 89-6 7-12 7-24 11-38-47 1-103-4-100 44" id="bm"/><path fill="#333" d="M68-162c25-46 127-43 121 31C183-60 169 1 98 4 69 5 53-11 43-31L36 0H5l52-261h31zm88 36c2-27-9-43-34-43-55 0-70 51-70 103 0 29 15 45 43 46 52 0 58-58 61-106" id="bn"/><path fill="#333" d="M248-111c6-24 9-61-24-58-72 9-57 108-77 169h-31l26-142c3-37-50-30-64-10C52-115 50-51 37 0H6l36-190h30c-1 10-6 24-4 32 13-43 101-52 105 5 13-22 29-41 61-41 90 0 28 129 23 194h-31" id="bo"/><path fill="#333" d="M30-147c31-64 166-65 159 27C183-49 158 1 86 4 9 8 1-88 30-147zM88-20c53 0 68-48 68-100 0-31-11-51-44-50-52 1-68 46-68 97 0 32 13 53 44 53" id="bp"/><g id="z"><use transform="matrix(0.04938271604938272,0,0,0.04938271604938272,0,0)" xlink:href="#bk"/><use transform="matrix(0.04938271604938272,0,0,0.04938271604938272,11.851851851851853,0)" xlink:href="#bl"/><use transform="matrix(0.04938271604938272,0,0,0.04938271604938272,20.74074074074074,0)" xlink:href="#az"/><use transform="matrix(0.04938271604938272,0,0,0.04938271604938272,25.679012345679016,0)" xlink:href="#bm"/><use transform="matrix(0.04938271604938272,0,0,0.04938271604938272,35.55555555555556,0)" xlink:href="#bn"/><use transform="matrix(0.04938271604938272,0,0,0.04938271604938272,45.4320987654321,0)" xlink:href="#ax"/><use transform="matrix(0.04938271604938272,0,0,0.04938271604938272,55.308641975308646,0)" xlink:href="#av"/><use transform="matrix(0.04938271604938272,0,0,0.04938271604938272,59.20987654320988,0)" xlink:href="#ax"/><use transform="matrix(0.04938271604938272,0,0,0.04938271604938272,69.08641975308643,0)" xlink:href="#ba"/><use transform="matrix(0.04938271604938272,0,0,0.04938271604938272,77.97530864197532,0)" xlink:href="#aw"/><use transform="matrix(0.04938271604938272,0,0,0.04938271604938272,81.87654320987656,0)" xlink:href="#bo"/><use transform="matrix(0.04938271604938272,0,0,0.04938271604938272,96.64197530864199,0)" xlink:href="#ax"/><use transform="matrix(0.04938271604938272,0,0,0.04938271604938272,106.51851851851853,0)" xlink:href="#ay"/><use transform="matrix(0.04938271604938272,0,0,0.04938271604938272,116.39506172839508,0)" xlink:href="#az"/><use transform="matrix(0.04938271604938272,0,0,0.04938271604938272,121.33333333333334,0)" xlink:href="#bp"/></g><path fill="#fff" d="M11 0l48-248h184l-5 28H87l-15 79h140l-5 27H67L50-27h158l-5 27H11" id="bq"/><path fill="#fff" d="M68-162c25-46 127-43 121 31C183-60 169 1 98 4 69 5 53-11 43-31L36 0H5l52-261h31zm88 36c2-27-9-43-34-43-55 0-70 51-70 103 0 29 15 45 43 46 52 0 58-58 61-106" id="br"/><g id="A"><use transform="matrix(0.04938271604938272,0,0,0.04938271604938272,0,0)" xlink:href="#bq"/><use transform="matrix(0.04938271604938272,0,0,0.04938271604938272,11.851851851851853,0)" xlink:href="#aD"/><use transform="matrix(0.04938271604938272,0,0,0.04938271604938272,20.74074074074074,0)" xlink:href="#aE"/><use transform="matrix(0.04938271604938272,0,0,0.04938271604938272,25.679012345679016,0)" xlink:href="#aB"/><use transform="matrix(0.04938271604938272,0,0,0.04938271604938272,35.55555555555556,0)" xlink:href="#br"/><use transform="matrix(0.04938271604938272,0,0,0.04938271604938272,45.4320987654321,0)" xlink:href="#aI"/><use transform="matrix(0.04938271604938272,0,0,0.04938271604938272,55.308641975308646,0)" xlink:href="#aG"/><use transform="matrix(0.04938271604938272,0,0,0.04938271604938272,59.20987654320988,0)" xlink:href="#aI"/><use transform="matrix(0.04938271604938272,0,0,0.04938271604938272,69.08641975308643,0)" xlink:href="#aN"/><use transform="matrix(0.04938271604938272,0,0,0.04938271604938272,77.97530864197532,0)" xlink:href="#aH"/><use transform="matrix(0.04938271604938272,0,0,0.04938271604938272,81.87654320987656,0)" xlink:href="#aM"/><use transform="matrix(0.04938271604938272,0,0,0.04938271604938272,96.64197530864199,0)" xlink:href="#aI"/><use transform="matrix(0.04938271604938272,0,0,0.04938271604938272,106.51851851851853,0)" xlink:href="#aJ"/><use transform="matrix(0.04938271604938272,0,0,0.04938271604938272,116.39506172839508,0)" xlink:href="#aE"/><use transform="matrix(0.04938271604938272,0,0,0.04938271604938272,121.33333333333334,0)" xlink:href="#aK"/></g><path fill="#fff" d="M16 0l37-190h31L47 0H16zm30-211c10-23 31-35 45-54h38l-1 5-66 49H46" id="bs"/><g id="B"><use transform="matrix(0.04938271604938272,0,0,0.04938271604938272,0,0)" xlink:href="#aA"/><use transform="matrix(0.04938271604938272,0,0,0.04938271604938272,12.790123456790125,0)" xlink:href="#aB"/><use transform="matrix(0.04938271604938272,0,0,0.04938271604938272,22.66666666666667,0)" xlink:href="#aF"/><use transform="matrix(0.04938271604938272,0,0,0.04938271604938272,28.54320987654322,0)" xlink:href="#aB"/><use transform="matrix(0.04938271604938272,0,0,0.04938271604938272,38.41975308641976,0)" xlink:href="#aN"/><use transform="matrix(0.04938271604938272,0,0,0.04938271604938272,47.308641975308646,0)" xlink:href="#aE"/><use transform="matrix(0.04938271604938272,0,0,0.04938271604938272,52.24691358024692,0)" xlink:href="#aI"/><use transform="matrix(0.04938271604938272,0,0,0.04938271604938272,62.12345679012346,0)" xlink:href="#aF"/><use transform="matrix(0.04938271604938272,0,0,0.04938271604938272,68,0)" xlink:href="#bs"/><use transform="matrix(0.04938271604938272,0,0,0.04938271604938272,72.93827160493828,0)" xlink:href="#aD"/><use transform="matrix(0.04938271604938272,0,0,0.04938271604938272,81.82716049382717,0)" xlink:href="#aE"/><use transform="matrix(0.04938271604938272,0,0,0.04938271604938272,86.76543209876544,0)" xlink:href="#aH"/><use transform="matrix(0.04938271604938272,0,0,0.04938271604938272,90.66666666666669,0)" xlink:href="#aN"/><use transform="matrix(0.04938271604938272,0,0,0.04938271604938272,99.55555555555557,0)" xlink:href="#aB"/><use transform="matrix(0.04938271604938272,0,0,0.04938271604938272,109.4320987654321,0)" xlink:href="#aD"/></g><path fill="#fff" d="M160-131c35 5 61 23 61 61C221 17 115-2 30 0v-248c76 3 177-17 177 60 0 33-19 50-47 57zm-97-11c50-1 110 9 110-42 0-47-63-36-110-37v79zm0 115c55-2 124 14 124-45 0-56-70-42-124-44v89" id="bt"/><path fill="#fff" d="M84 4C-5 8 30-112 23-190h32v120c0 31 7 50 39 49 72-2 45-101 50-169h31l1 190h-30c-1-10 1-25-2-33-11 22-28 36-60 37" id="bu"/><path fill="#fff" d="M96-169c-40 0-48 33-48 73s9 75 48 75c24 0 41-14 43-38l32 2c-6 37-31 61-74 61-59 0-76-41-82-99-10-93 101-131 147-64 4 7 5 14 7 22l-32 3c-4-21-16-35-41-35" id="bv"/><g id="C"><use transform="matrix(0.04938271604938272,0,0,0.04938271604938272,0,0)" xlink:href="#bt"/><use transform="matrix(0.04938271604938272,0,0,0.04938271604938272,11.851851851851853,0)" xlink:href="#bu"/><use transform="matrix(0.04938271604938272,0,0,0.04938271604938272,21.7283950617284,0)" xlink:href="#aR"/><use transform="matrix(0.04938271604938272,0,0,0.04938271604938272,30.617283950617285,0)" xlink:href="#bv"/><use transform="matrix(0.04938271604938272,0,0,0.04938271604938272,39.50617283950618,0)" xlink:href="#aP"/><use transform="matrix(0.04938271604938272,0,0,0.04938271604938272,49.38271604938272,0)" xlink:href="#aT"/></g><path fill="#fff" d="M115-194c53 0 69 39 70 98 0 66-23 100-70 100C84 3 66-7 56-30L54 0H23l1-261h32v101c10-23 28-34 59-34zm-8 174c40 0 45-34 45-75 0-40-5-75-45-74-42 0-51 32-51 76 0 43 10 73 51 73" id="bw"/><path fill="#fff" d="M210-169c-67 3-38 105-44 169h-31v-121c0-29-5-50-35-48C34-165 62-65 56 0H25l-1-190h30c1 10-1 24 2 32 10-44 99-50 107 0 11-21 27-35 58-36 85-2 47 119 55 194h-31v-121c0-29-5-49-35-48" id="bx"/><path fill="#fff" d="M117-194c89-4 53 116 60 194h-32v-121c0-31-8-49-39-48C34-167 62-67 57 0H25l-1-190h30c1 10-1 24 2 32 11-22 29-35 61-36" id="by"/><path fill="#fff" d="M100-194c62-1 85 37 85 99 1 63-27 99-86 99S16-35 15-95c0-66 28-99 85-99zM99-20c44 1 53-31 53-75 0-43-8-75-51-75s-53 32-53 75 10 74 51 75" id="bz"/><g id="D"><use transform="matrix(0.04938271604938272,0,0,0.04938271604938272,0,0)" xlink:href="#aV"/><use transform="matrix(0.04938271604938272,0,0,0.04938271604938272,9.876543209876544,0)" xlink:href="#aR"/><use transform="matrix(0.04938271604938272,0,0,0.04938271604938272,18.765432098765434,0)" xlink:href="#aS"/><use transform="matrix(0.04938271604938272,0,0,0.04938271604938272,23.703703703703706,0)" xlink:href="#aP"/><use transform="matrix(0.04938271604938272,0,0,0.04938271604938272,33.580246913580254,0)" xlink:href="#bw"/><use transform="matrix(0.04938271604938272,0,0,0.04938271604938272,43.4567901234568,0)" xlink:href="#aV"/><use transform="matrix(0.04938271604938272,0,0,0.04938271604938272,53.333333333333336,0)" xlink:href="#aY"/><use transform="matrix(0.04938271604938272,0,0,0.04938271604938272,57.23456790123457,0)" xlink:href="#aV"/><use transform="matrix(0.04938271604938272,0,0,0.04938271604938272,67.11111111111111,0)" xlink:href="#bv"/><use transform="matrix(0.04938271604938272,0,0,0.04938271604938272,76,0)" xlink:href="#aX"/><use transform="matrix(0.04938271604938272,0,0,0.04938271604938272,79.90123456790124,0)" xlink:href="#bx"/><use transform="matrix(0.04938271604938272,0,0,0.04938271604938272,94.66666666666667,0)" xlink:href="#aV"/><use transform="matrix(0.04938271604938272,0,0,0.04938271604938272,104.54320987654322,0)" xlink:href="#by"/><use transform="matrix(0.04938271604938272,0,0,0.04938271604938272,114.41975308641976,0)" xlink:href="#aS"/><use transform="matrix(0.04938271604938272,0,0,0.04938271604938272,119.35802469135804,0)" xlink:href="#bz"/></g><path fill="#fff" d="M233-177c-1 41-23 64-60 70L243 0h-38l-65-103H63V0H30v-248c88 3 205-21 203 71zM63-129c60-2 137 13 137-47 0-61-80-42-137-45v92" id="bA"/><path fill="#fff" d="M9 0v-24l116-142H16v-24h144v24L44-24h123V0H9" id="bB"/><g id="E"><use transform="matrix(0.04938271604938272,0,0,0.04938271604938272,0,0)" xlink:href="#bA"/><use transform="matrix(0.04938271604938272,0,0,0.04938271604938272,12.790123456790125,0)" xlink:href="#aV"/><use transform="matrix(0.04938271604938272,0,0,0.04938271604938272,22.66666666666667,0)" xlink:href="#aP"/><use transform="matrix(0.04938271604938272,0,0,0.04938271604938272,32.543209876543216,0)" xlink:href="#aY"/><use transform="matrix(0.04938271604938272,0,0,0.04938271604938272,36.44444444444445,0)" xlink:href="#aX"/><use transform="matrix(0.04938271604938272,0,0,0.04938271604938272,40.345679012345684,0)" xlink:href="#bB"/><use transform="matrix(0.04938271604938272,0,0,0.04938271604938272,49.23456790123457,0)" xlink:href="#aP"/><use transform="matrix(0.04938271604938272,0,0,0.04938271604938272,59.111111111111114,0)" xlink:href="#aT"/></g><path fill="#fff" d="M106-169C34-169 62-67 57 0H25v-261h32l-1 103c12-21 28-36 61-36 89 0 53 116 60 194h-32v-121c2-32-8-49-39-48" id="bC"/><path fill="#fff" d="M143 0L79-87 56-68V0H24v-261h32v163l83-92h37l-77 82L181 0h-38" id="bD"/><path fill="#fff" d="M16-82v-28h88v28H16" id="bE"/><g id="F"><use transform="matrix(0.04938271604938272,0,0,0.04938271604938272,0,0)" xlink:href="#aO"/><use transform="matrix(0.04938271604938272,0,0,0.04938271604938272,12.790123456790125,0)" xlink:href="#bC"/><use transform="matrix(0.04938271604938272,0,0,0.04938271604938272,22.66666666666667,0)" xlink:href="#aV"/><use transform="matrix(0.04938271604938272,0,0,0.04938271604938272,32.543209876543216,0)" xlink:href="#bv"/><use transform="matrix(0.04938271604938272,0,0,0.04938271604938272,41.4320987654321,0)" xlink:href="#bD"/><use transform="matrix(0.04938271604938272,0,0,0.04938271604938272,50.32098765432099,0)" xlink:href="#bE"/><use transform="matrix(0.04938271604938272,0,0,0.04938271604938272,56.19753086419754,0)" xlink:href="#aX"/><use transform="matrix(0.04938271604938272,0,0,0.04938271604938272,60.09876543209877,0)" xlink:href="#by"/></g><path fill="#fff" d="M63-220v92h138v28H63V0H30v-248h175v28H63" id="bF"/><g id="G"><use transform="matrix(0.04938271604938272,0,0,0.04938271604938272,0,0)" xlink:href="#bF"/><use transform="matrix(0.04938271604938272,0,0,0.04938271604938272,10.814814814814815,0)" xlink:href="#aX"/><use transform="matrix(0.04938271604938272,0,0,0.04938271604938272,14.71604938271605,0)" xlink:href="#aY"/><use transform="matrix(0.04938271604938272,0,0,0.04938271604938272,18.617283950617285,0)" xlink:href="#aS"/><use transform="matrix(0.04938271604938272,0,0,0.04938271604938272,23.555555555555557,0)" xlink:href="#aT"/><use transform="matrix(0.04938271604938272,0,0,0.04938271604938272,29.4320987654321,0)" xlink:href="#aP"/><use transform="matrix(0.04938271604938272,0,0,0.04938271604938272,39.308641975308646,0)" xlink:href="#aT"/></g><path fill="#fff" d="M30 0v-248h187v28H63v79h144v27H63v87h162V0H30" id="bG"/><path fill="#fff" d="M141 0L90-78 38 0H4l68-98-65-92h35l48 74 47-74h35l-64 92 68 98h-35" id="bH"/><g id="H"><use transform="matrix(0.04938271604938272,0,0,0.04938271604938272,0,0)" xlink:href="#bG"/><use transform="matrix(0.04938271604938272,0,0,0.04938271604938272,11.851851851851853,0)" xlink:href="#bH"/><use transform="matrix(0.04938271604938272,0,0,0.04938271604938272,20.74074074074074,0)" xlink:href="#bv"/><use transform="matrix(0.04938271604938272,0,0,0.04938271604938272,29.629629629629633,0)" xlink:href="#aY"/><use transform="matrix(0.04938271604938272,0,0,0.04938271604938272,33.53086419753087,0)" xlink:href="#bu"/><use transform="matrix(0.04938271604938272,0,0,0.04938271604938272,43.40740740740741,0)" xlink:href="#aX"/><use transform="matrix(0.04938271604938272,0,0,0.04938271604938272,47.308641975308646,0)" xlink:href="#aT"/></g><path fill="#fff" d="M232-93c-1 65-40 97-104 97C67 4 28-28 28-90v-158h33c8 89-33 224 67 224 102 0 64-133 71-224h33v155" id="bI"/><g id="I"><use transform="matrix(0.04938271604938272,0,0,0.04938271604938272,0,0)" xlink:href="#bI"/><use transform="matrix(0.04938271604938272,0,0,0.04938271604938272,12.790123456790125,0)" xlink:href="#aR"/><use transform="matrix(0.04938271604938272,0,0,0.04938271604938272,21.679012345679013,0)" xlink:href="#bu"/><use transform="matrix(0.04938271604938272,0,0,0.04938271604938272,31.555555555555557,0)" xlink:href="#aP"/><use transform="matrix(0.04938271604938272,0,0,0.04938271604938272,41.4320987654321,0)" xlink:href="#aT"/><use transform="matrix(0.04938271604938272,0,0,0.04938271604938272,47.308641975308646,0)" xlink:href="#aX"/><use transform="matrix(0.04938271604938272,0,0,0.04938271604938272,51.20987654320988,0)" xlink:href="#bz"/></g><path fill="#fff" d="M30 0v-248h33v221h125V0H30" id="bJ"/><path fill="#fff" d="M177-190C167-65 218 103 67 71c-23-6-38-20-44-43l32-5c15 47 100 32 89-28v-30C133-14 115 1 83 1 29 1 15-40 15-95c0-56 16-97 71-98 29-1 48 16 59 35 1-10 0-23 2-32h30zM94-22c36 0 50-32 50-73 0-42-14-75-50-75-39 0-46 34-46 75s6 73 46 73" id="bK"/><path fill="#fff" d="M140-251c81 0 123 46 123 126C263-46 219 4 140 4 59 4 17-45 17-125s42-126 123-126zm0 227c63 0 89-41 89-101s-29-99-89-99c-61 0-89 39-89 99S79-25 140-24" id="bL"/><g id="J"><use transform="matrix(0.04938271604938272,0,0,0.04938271604938272,0,0)" xlink:href="#bJ"/><use transform="matrix(0.04938271604938272,0,0,0.04938271604938272,9.876543209876544,0)" xlink:href="#bz"/><use transform="matrix(0.04938271604938272,0,0,0.04938271604938272,19.75308641975309,0)" xlink:href="#bK"/><use transform="matrix(0.04938271604938272,0,0,0.04938271604938272,29.629629629629633,0)" xlink:href="#bL"/><use transform="matrix(0.04938271604938272,0,0,0.04938271604938272,43.4567901234568,0)" xlink:href="#bu"/><use transform="matrix(0.04938271604938272,0,0,0.04938271604938272,53.333333333333336,0)" xlink:href="#aS"/></g><path fill="#fff" d="M205 0l-28-72H64L36 0H1l101-248h38L239 0h-34zm-38-99l-47-123c-12 45-31 82-46 123h93" id="bM"/><g id="K"><use transform="matrix(0.04938271604938272,0,0,0.04938271604938272,0,0)" xlink:href="#bM"/><use transform="matrix(0.04938271604938272,0,0,0.04938271604938272,11.851851851851853,0)" xlink:href="#aS"/><use transform="matrix(0.04938271604938272,0,0,0.04938271604938272,16.790123456790127,0)" xlink:href="#aV"/><use transform="matrix(0.04938271604938272,0,0,0.04938271604938272,26.666666666666668,0)" xlink:href="#by"/><use transform="matrix(0.04938271604938272,0,0,0.04938271604938272,36.543209876543216,0)" xlink:href="#aS"/><use transform="matrix(0.04938271604938272,0,0,0.04938271604938272,41.48148148148149,0)" xlink:href="#aX"/><use transform="matrix(0.04938271604938272,0,0,0.04938271604938272,45.38271604938272,0)" xlink:href="#bv"/><use transform="matrix(0.04938271604938272,0,0,0.04938271604938272,54.27160493827161,0)" xlink:href="#aP"/><use transform="matrix(0.04938271604938272,0,0,0.04938271604938272,64.14814814814815,0)" xlink:href="#aT"/></g><g id="L"><use transform="matrix(0.04938271604938272,0,0,0.04938271604938272,0,0)" xlink:href="#bI"/><use transform="matrix(0.04938271604938272,0,0,0.04938271604938272,12.790123456790125,0)" xlink:href="#aR"/><use transform="matrix(0.04938271604938272,0,0,0.04938271604938272,21.679012345679013,0)" xlink:href="#bu"/><use transform="matrix(0.04938271604938272,0,0,0.04938271604938272,31.555555555555557,0)" xlink:href="#aP"/><use transform="matrix(0.04938271604938272,0,0,0.04938271604938272,41.4320987654321,0)" xlink:href="#aT"/><use transform="matrix(0.04938271604938272,0,0,0.04938271604938272,47.308641975308646,0)" xlink:href="#aX"/><use transform="matrix(0.04938271604938272,0,0,0.04938271604938272,51.20987654320988,0)" xlink:href="#bz"/></g></defs></g></svg>